<mxfile host="drawio-plugin" modified="2021-10-25T10:29:41.531Z" agent="5.0 (Windows NT 6.1; Win64; x64) AppleWebKit/537.36 (KHTML, like Gecko) Chrome/89.0.4389.114 Safari/537.36" etag="END9cdVGs2hzDSjO1tbB" version="14.7.4" type="embed"><diagram id="C5RBs43oDa-KdzZeNtuy" name="Page-1"><mxGraphModel dx="1276" dy="415" grid="1" gridSize="10" guides="1" tooltips="1" connect="1" arrows="1" fold="1" page="1" pageScale="1" pageWidth="827" pageHeight="1169" math="0" shadow="0"><root><mxCell id="WIyWlLk6GJQsqaUBKTNV-0"/><mxCell id="WIyWlLk6GJQsqaUBKTNV-1" parent="WIyWlLk6GJQsqaUBKTNV-0"/><mxCell id="7Xj7dqsz9zFbZgdujNrx-7" style="edgeStyle=orthogonalEdgeStyle;rounded=0;orthogonalLoop=1;jettySize=auto;html=1;exitX=0.5;exitY=1;exitDx=0;exitDy=0;exitPerimeter=0;entryX=0.5;entryY=0;entryDx=0;entryDy=0;" parent="WIyWlLk6GJQsqaUBKTNV-1" source="dcVJOhPvYpB5vxYuuIVU-0" target="7Xj7dqsz9zFbZgdujNrx-6" edge="1"><mxGeometry relative="1" as="geometry"/></mxCell><mxCell id="dcVJOhPvYpB5vxYuuIVU-0" value="Запуск" style="strokeWidth=2;html=1;shape=mxgraph.flowchart.terminator;whiteSpace=wrap;" parent="WIyWlLk6GJQsqaUBKTNV-1" vertex="1"><mxGeometry x="110" y="10" width="100" height="40" as="geometry"/></mxCell><mxCell id="dcVJOhPvYpB5vxYuuIVU-9" style="edgeStyle=orthogonalEdgeStyle;rounded=0;orthogonalLoop=1;jettySize=auto;html=1;entryX=0;entryY=0.5;entryDx=0;entryDy=0;" parent="WIyWlLk6GJQsqaUBKTNV-1" source="dcVJOhPvYpB5vxYuuIVU-2" target="dcVJOhPvYpB5vxYuuIVU-8" edge="1"><mxGeometry relative="1" as="geometry"/></mxCell><mxCell id="dcVJOhPvYpB5vxYuuIVU-2" value="Считать &lt;br&gt;source_data.txt" style="shape=parallelogram;html=1;strokeWidth=2;perimeter=parallelogramPerimeter;whiteSpace=wrap;rounded=1;arcSize=12;size=0.23;shadow=0;fillColor=none;" parent="WIyWlLk6GJQsqaUBKTNV-1" vertex="1"><mxGeometry x="332.75" y="200" width="162.5" height="50" as="geometry"/></mxCell><mxCell id="dcVJOhPvYpB5vxYuuIVU-25" style="edgeStyle=orthogonalEdgeStyle;rounded=0;orthogonalLoop=1;jettySize=auto;html=1;entryX=0.5;entryY=0;entryDx=0;entryDy=0;entryPerimeter=0;" parent="WIyWlLk6GJQsqaUBKTNV-1" source="dcVJOhPvYpB5vxYuuIVU-5" target="dcVJOhPvYpB5vxYuuIVU-24" edge="1"><mxGeometry relative="1" as="geometry"/></mxCell><mxCell id="dcVJOhPvYpB5vxYuuIVU-5" value="main()" style="shape=process;whiteSpace=wrap;html=1;backgroundOutline=1;shadow=0;fillColor=none;" parent="WIyWlLk6GJQsqaUBKTNV-1" vertex="1"><mxGeometry x="100" y="200" width="120" height="40" as="geometry"/></mxCell><mxCell id="dcVJOhPvYpB5vxYuuIVU-11" style="edgeStyle=orthogonalEdgeStyle;rounded=0;orthogonalLoop=1;jettySize=auto;html=1;" parent="WIyWlLk6GJQsqaUBKTNV-1" source="dcVJOhPvYpB5vxYuuIVU-8" target="dcVJOhPvYpB5vxYuuIVU-10" edge="1"><mxGeometry relative="1" as="geometry"/></mxCell><mxCell id="dcVJOhPvYpB5vxYuuIVU-8" value="Получить список всех строк файла" style="rounded=0;whiteSpace=wrap;html=1;shadow=0;fillColor=none;" parent="WIyWlLk6GJQsqaUBKTNV-1" vertex="1"><mxGeometry x="520" y="195" width="120" height="60" as="geometry"/></mxCell><mxCell id="dcVJOhPvYpB5vxYuuIVU-13" style="edgeStyle=orthogonalEdgeStyle;rounded=0;orthogonalLoop=1;jettySize=auto;html=1;entryX=0.5;entryY=0;entryDx=0;entryDy=0;" parent="WIyWlLk6GJQsqaUBKTNV-1" source="dcVJOhPvYpB5vxYuuIVU-10" target="dcVJOhPvYpB5vxYuuIVU-12" edge="1"><mxGeometry relative="1" as="geometry"/></mxCell><mxCell id="dcVJOhPvYpB5vxYuuIVU-10" value="Для каждого элемента в списке" style="strokeWidth=2;html=1;shape=mxgraph.flowchart.loop_limit;whiteSpace=wrap;shadow=0;fillColor=none;" parent="WIyWlLk6GJQsqaUBKTNV-1" vertex="1"><mxGeometry x="530" y="300" width="100" height="60" as="geometry"/></mxCell><mxCell id="dcVJOhPvYpB5vxYuuIVU-15" style="edgeStyle=orthogonalEdgeStyle;rounded=0;orthogonalLoop=1;jettySize=auto;html=1;" parent="WIyWlLk6GJQsqaUBKTNV-1" source="dcVJOhPvYpB5vxYuuIVU-12" target="dcVJOhPvYpB5vxYuuIVU-14" edge="1"><mxGeometry relative="1" as="geometry"/></mxCell><mxCell id="dcVJOhPvYpB5vxYuuIVU-12" value="Удалить всё лишнее, оставив лишь входные значения х" style="rounded=0;whiteSpace=wrap;html=1;shadow=0;fillColor=none;" parent="WIyWlLk6GJQsqaUBKTNV-1" vertex="1"><mxGeometry x="520" y="400" width="120" height="80" as="geometry"/></mxCell><mxCell id="dcVJOhPvYpB5vxYuuIVU-18" style="edgeStyle=orthogonalEdgeStyle;rounded=0;orthogonalLoop=1;jettySize=auto;html=1;entryX=1;entryY=0.5;entryDx=0;entryDy=0;" parent="WIyWlLk6GJQsqaUBKTNV-1" source="dcVJOhPvYpB5vxYuuIVU-14" target="dcVJOhPvYpB5vxYuuIVU-17" edge="1"><mxGeometry relative="1" as="geometry"/></mxCell><mxCell id="dcVJOhPvYpB5vxYuuIVU-14" value="" style="strokeWidth=2;html=1;shape=mxgraph.flowchart.loop_limit;whiteSpace=wrap;shadow=0;fillColor=none;rotation=-180;" parent="WIyWlLk6GJQsqaUBKTNV-1" vertex="1"><mxGeometry x="530" y="510" width="100" height="60" as="geometry"/></mxCell><mxCell id="dcVJOhPvYpB5vxYuuIVU-20" style="edgeStyle=orthogonalEdgeStyle;rounded=0;orthogonalLoop=1;jettySize=auto;html=1;" parent="WIyWlLk6GJQsqaUBKTNV-1" source="dcVJOhPvYpB5vxYuuIVU-17" target="dcVJOhPvYpB5vxYuuIVU-19" edge="1"><mxGeometry relative="1" as="geometry"/></mxCell><mxCell id="dcVJOhPvYpB5vxYuuIVU-17" value="Создать словарь с парой х:у" style="rounded=0;whiteSpace=wrap;html=1;shadow=0;fillColor=none;" parent="WIyWlLk6GJQsqaUBKTNV-1" vertex="1"><mxGeometry x="354" y="510" width="120" height="60" as="geometry"/></mxCell><mxCell id="dcVJOhPvYpB5vxYuuIVU-23" style="edgeStyle=orthogonalEdgeStyle;rounded=0;orthogonalLoop=1;jettySize=auto;html=1;" parent="WIyWlLk6GJQsqaUBKTNV-1" source="dcVJOhPvYpB5vxYuuIVU-19" target="dcVJOhPvYpB5vxYuuIVU-22" edge="1"><mxGeometry relative="1" as="geometry"/></mxCell><mxCell id="dcVJOhPvYpB5vxYuuIVU-19" value="Для каждого элемента в списке входных значений" style="strokeWidth=2;html=1;shape=mxgraph.flowchart.loop_limit;whiteSpace=wrap;shadow=0;fillColor=none;" parent="WIyWlLk6GJQsqaUBKTNV-1" vertex="1"><mxGeometry x="190" y="510" width="100" height="60" as="geometry"/></mxCell><mxCell id="dcVJOhPvYpB5vxYuuIVU-30" style="edgeStyle=orthogonalEdgeStyle;rounded=0;orthogonalLoop=1;jettySize=auto;html=1;" parent="WIyWlLk6GJQsqaUBKTNV-1" source="dcVJOhPvYpB5vxYuuIVU-21" target="dcVJOhPvYpB5vxYuuIVU-29" edge="1"><mxGeometry relative="1" as="geometry"/></mxCell><mxCell id="dcVJOhPvYpB5vxYuuIVU-21" value="Записать в словарь пару входного х и возвращённого значения у" style="rounded=0;whiteSpace=wrap;html=1;shadow=0;fillColor=none;" parent="WIyWlLk6GJQsqaUBKTNV-1" vertex="1"><mxGeometry x="180" y="680" width="120" height="60" as="geometry"/></mxCell><mxCell id="dcVJOhPvYpB5vxYuuIVU-28" style="edgeStyle=orthogonalEdgeStyle;rounded=0;orthogonalLoop=1;jettySize=auto;html=1;entryX=0.5;entryY=0;entryDx=0;entryDy=0;" parent="WIyWlLk6GJQsqaUBKTNV-1" source="dcVJOhPvYpB5vxYuuIVU-22" target="dcVJOhPvYpB5vxYuuIVU-21" edge="1"><mxGeometry relative="1" as="geometry"/></mxCell><mxCell id="dcVJOhPvYpB5vxYuuIVU-22" value="вызвать функцию y(x)" style="shape=process;whiteSpace=wrap;html=1;backgroundOutline=1;shadow=0;fillColor=none;" parent="WIyWlLk6GJQsqaUBKTNV-1" vertex="1"><mxGeometry x="180" y="600" width="120" height="40" as="geometry"/></mxCell><mxCell id="dcVJOhPvYpB5vxYuuIVU-24" value="Завершение" style="strokeWidth=2;html=1;shape=mxgraph.flowchart.terminator;whiteSpace=wrap;" parent="WIyWlLk6GJQsqaUBKTNV-1" vertex="1"><mxGeometry x="110" y="280" width="100" height="40" as="geometry"/></mxCell><mxCell id="dcVJOhPvYpB5vxYuuIVU-27" style="edgeStyle=orthogonalEdgeStyle;rounded=0;orthogonalLoop=1;jettySize=auto;html=1;" parent="WIyWlLk6GJQsqaUBKTNV-1" source="dcVJOhPvYpB5vxYuuIVU-26" target="dcVJOhPvYpB5vxYuuIVU-2" edge="1"><mxGeometry relative="1" as="geometry"/></mxCell><mxCell id="dcVJOhPvYpB5vxYuuIVU-26" value="main()" style="shape=process;whiteSpace=wrap;html=1;backgroundOutline=1;shadow=0;fillColor=none;" parent="WIyWlLk6GJQsqaUBKTNV-1" vertex="1"><mxGeometry x="354" y="120" width="120" height="40" as="geometry"/></mxCell><mxCell id="7Xj7dqsz9zFbZgdujNrx-10" style="edgeStyle=orthogonalEdgeStyle;rounded=0;orthogonalLoop=1;jettySize=auto;html=1;exitX=0;exitY=0.5;exitDx=0;exitDy=0;exitPerimeter=0;" parent="WIyWlLk6GJQsqaUBKTNV-1" source="dcVJOhPvYpB5vxYuuIVU-29" target="7Xj7dqsz9zFbZgdujNrx-9" edge="1"><mxGeometry relative="1" as="geometry"/></mxCell><mxCell id="dcVJOhPvYpB5vxYuuIVU-29" value="" style="strokeWidth=2;html=1;shape=mxgraph.flowchart.loop_limit;whiteSpace=wrap;shadow=0;fillColor=none;rotation=-180;" parent="WIyWlLk6GJQsqaUBKTNV-1" vertex="1"><mxGeometry x="190" y="770" width="100" height="60" as="geometry"/></mxCell><mxCell id="7Xj7dqsz9zFbZgdujNrx-1" style="edgeStyle=orthogonalEdgeStyle;rounded=0;orthogonalLoop=1;jettySize=auto;html=1;entryX=1;entryY=0.5;entryDx=0;entryDy=0;exitX=1;exitY=0.5;exitDx=0;exitDy=0;" parent="WIyWlLk6GJQsqaUBKTNV-1" source="7Xj7dqsz9zFbZgdujNrx-6" target="dcVJOhPvYpB5vxYuuIVU-5" edge="1"><mxGeometry relative="1" as="geometry"><mxPoint x="250" y="135" as="sourcePoint"/><Array as="points"><mxPoint x="280" y="120"/><mxPoint x="280" y="220"/></Array></mxGeometry></mxCell><mxCell id="7Xj7dqsz9zFbZgdujNrx-4" value="да" style="edgeLabel;html=1;align=center;verticalAlign=middle;resizable=0;points=[];" parent="7Xj7dqsz9zFbZgdujNrx-1" vertex="1" connectable="0"><mxGeometry x="-0.7419" y="-8" relative="1" as="geometry"><mxPoint x="-11" y="-8" as="offset"/></mxGeometry></mxCell><mxCell id="7Xj7dqsz9zFbZgdujNrx-2" style="edgeStyle=orthogonalEdgeStyle;rounded=0;orthogonalLoop=1;jettySize=auto;html=1;entryX=0;entryY=0.5;entryDx=0;entryDy=0;entryPerimeter=0;exitX=0;exitY=0.5;exitDx=0;exitDy=0;" parent="WIyWlLk6GJQsqaUBKTNV-1" source="7Xj7dqsz9zFbZgdujNrx-6" target="dcVJOhPvYpB5vxYuuIVU-24" edge="1"><mxGeometry relative="1" as="geometry"><mxPoint x="70" y="135" as="sourcePoint"/><Array as="points"><mxPoint x="40" y="120"/><mxPoint x="40" y="300"/></Array></mxGeometry></mxCell><mxCell id="7Xj7dqsz9zFbZgdujNrx-5" value="нет" style="edgeLabel;html=1;align=center;verticalAlign=middle;resizable=0;points=[];" parent="7Xj7dqsz9zFbZgdujNrx-2" vertex="1" connectable="0"><mxGeometry x="-0.6816" y="1" relative="1" as="geometry"><mxPoint x="19" y="-2" as="offset"/></mxGeometry></mxCell><mxCell id="7Xj7dqsz9zFbZgdujNrx-6" value="&lt;span&gt;модуль запущен как&amp;nbsp;&lt;/span&gt;&lt;br&gt;&lt;span&gt;исполняемый скрипт&lt;/span&gt;" style="shape=hexagon;perimeter=hexagonPerimeter2;whiteSpace=wrap;html=1;fixedSize=1;" parent="WIyWlLk6GJQsqaUBKTNV-1" vertex="1"><mxGeometry x="85" y="80" width="150" height="80" as="geometry"/></mxCell><mxCell id="7Xj7dqsz9zFbZgdujNrx-13" style="edgeStyle=orthogonalEdgeStyle;rounded=0;orthogonalLoop=1;jettySize=auto;html=1;exitX=1;exitY=0.5;exitDx=0;exitDy=0;entryX=0;entryY=0.5;entryDx=0;entryDy=0;entryPerimeter=0;" parent="WIyWlLk6GJQsqaUBKTNV-1" source="7Xj7dqsz9zFbZgdujNrx-9" target="7Xj7dqsz9zFbZgdujNrx-12" edge="1"><mxGeometry relative="1" as="geometry"/></mxCell><mxCell id="7Xj7dqsz9zFbZgdujNrx-9" value="создать файл &lt;br&gt;result.txt" style="shape=parallelogram;html=1;strokeWidth=2;perimeter=parallelogramPerimeter;whiteSpace=wrap;rounded=1;arcSize=12;size=0.23;shadow=0;fillColor=none;" parent="WIyWlLk6GJQsqaUBKTNV-1" vertex="1"><mxGeometry x="332.75" y="775" width="162.5" height="50" as="geometry"/></mxCell><mxCell id="3" style="edgeStyle=orthogonalEdgeStyle;rounded=0;orthogonalLoop=1;jettySize=auto;html=1;exitX=0.5;exitY=1;exitDx=0;exitDy=0;entryX=0.5;entryY=0;entryDx=0;entryDy=0;" edge="1" parent="WIyWlLk6GJQsqaUBKTNV-1" source="7Xj7dqsz9zFbZgdujNrx-11" target="2"><mxGeometry relative="1" as="geometry"/></mxCell><mxCell id="7Xj7dqsz9zFbZgdujNrx-11" value="y(x)" style="shape=process;whiteSpace=wrap;html=1;backgroundOutline=1;shadow=0;fillColor=none;" parent="WIyWlLk6GJQsqaUBKTNV-1" vertex="1"><mxGeometry x="881.25" y="120" width="120" height="40" as="geometry"/></mxCell><mxCell id="7Xj7dqsz9zFbZgdujNrx-15" style="edgeStyle=orthogonalEdgeStyle;rounded=0;orthogonalLoop=1;jettySize=auto;html=1;exitX=0.5;exitY=1;exitDx=0;exitDy=0;exitPerimeter=0;entryX=0.5;entryY=0;entryDx=0;entryDy=0;" parent="WIyWlLk6GJQsqaUBKTNV-1" source="7Xj7dqsz9zFbZgdujNrx-12" target="7Xj7dqsz9zFbZgdujNrx-14" edge="1"><mxGeometry relative="1" as="geometry"/></mxCell><mxCell id="7Xj7dqsz9zFbZgdujNrx-12" value="Для каждой пары в словаре" style="strokeWidth=2;html=1;shape=mxgraph.flowchart.loop_limit;whiteSpace=wrap;shadow=0;fillColor=none;" parent="WIyWlLk6GJQsqaUBKTNV-1" vertex="1"><mxGeometry x="540" y="770" width="100" height="60" as="geometry"/></mxCell><mxCell id="7Xj7dqsz9zFbZgdujNrx-19" value="да" style="edgeStyle=orthogonalEdgeStyle;rounded=0;orthogonalLoop=1;jettySize=auto;html=1;exitX=1;exitY=0.5;exitDx=0;exitDy=0;" parent="WIyWlLk6GJQsqaUBKTNV-1" source="7Xj7dqsz9zFbZgdujNrx-14" target="7Xj7dqsz9zFbZgdujNrx-17" edge="1"><mxGeometry relative="1" as="geometry"/></mxCell><mxCell id="7Xj7dqsz9zFbZgdujNrx-25" value="нет" style="edgeStyle=orthogonalEdgeStyle;rounded=0;orthogonalLoop=1;jettySize=auto;html=1;exitX=0.5;exitY=1;exitDx=0;exitDy=0;" parent="WIyWlLk6GJQsqaUBKTNV-1" source="7Xj7dqsz9zFbZgdujNrx-14" target="7Xj7dqsz9zFbZgdujNrx-24" edge="1"><mxGeometry relative="1" as="geometry"/></mxCell><mxCell id="7Xj7dqsz9zFbZgdujNrx-14" value="значение является комплексным числом" style="shape=hexagon;perimeter=hexagonPerimeter2;whiteSpace=wrap;html=1;fixedSize=1;" parent="WIyWlLk6GJQsqaUBKTNV-1" vertex="1"><mxGeometry x="515" y="880" width="150" height="80" as="geometry"/></mxCell><mxCell id="7Xj7dqsz9zFbZgdujNrx-35" style="edgeStyle=orthogonalEdgeStyle;rounded=0;orthogonalLoop=1;jettySize=auto;html=1;exitX=0.5;exitY=1;exitDx=0;exitDy=0;entryX=0.5;entryY=1;entryDx=0;entryDy=0;entryPerimeter=0;" parent="WIyWlLk6GJQsqaUBKTNV-1" source="7Xj7dqsz9zFbZgdujNrx-16" target="7Xj7dqsz9zFbZgdujNrx-32" edge="1"><mxGeometry relative="1" as="geometry"/></mxCell><mxCell id="7Xj7dqsz9zFbZgdujNrx-16" value="записать строку&lt;br&gt;&amp;nbsp;в файл&amp;nbsp;result.txt" style="shape=parallelogram;html=1;strokeWidth=2;perimeter=parallelogramPerimeter;whiteSpace=wrap;rounded=1;arcSize=12;size=0.23;shadow=0;fillColor=none;" parent="WIyWlLk6GJQsqaUBKTNV-1" vertex="1"><mxGeometry x="678.75" y="1155" width="162.5" height="50" as="geometry"/></mxCell><mxCell id="7Xj7dqsz9zFbZgdujNrx-20" style="edgeStyle=orthogonalEdgeStyle;rounded=0;orthogonalLoop=1;jettySize=auto;html=1;exitX=0.5;exitY=1;exitDx=0;exitDy=0;entryX=0.5;entryY=0;entryDx=0;entryDy=0;" parent="WIyWlLk6GJQsqaUBKTNV-1" source="7Xj7dqsz9zFbZgdujNrx-17" target="7Xj7dqsz9zFbZgdujNrx-18" edge="1"><mxGeometry relative="1" as="geometry"/></mxCell><mxCell id="7Xj7dqsz9zFbZgdujNrx-17" value="округлить реальную часть до 3-х знаков после запятой" style="rounded=0;whiteSpace=wrap;html=1;shadow=0;fillColor=none;" parent="WIyWlLk6GJQsqaUBKTNV-1" vertex="1"><mxGeometry x="881.25" y="890" width="120" height="60" as="geometry"/></mxCell><mxCell id="7Xj7dqsz9zFbZgdujNrx-34" style="edgeStyle=orthogonalEdgeStyle;rounded=0;orthogonalLoop=1;jettySize=auto;html=1;exitX=0.5;exitY=1;exitDx=0;exitDy=0;entryX=1;entryY=0.5;entryDx=0;entryDy=0;" parent="WIyWlLk6GJQsqaUBKTNV-1" source="7Xj7dqsz9zFbZgdujNrx-18" target="7Xj7dqsz9zFbZgdujNrx-16" edge="1"><mxGeometry relative="1" as="geometry"><Array as="points"><mxPoint x="941" y="1180"/></Array></mxGeometry></mxCell><mxCell id="7Xj7dqsz9zFbZgdujNrx-18" value="прибавить округлённую до 3-х знаков мнимую часть, умноженную на 1j" style="rounded=0;whiteSpace=wrap;html=1;shadow=0;fillColor=none;" parent="WIyWlLk6GJQsqaUBKTNV-1" vertex="1"><mxGeometry x="881.25" y="970" width="120" height="80" as="geometry"/></mxCell><mxCell id="7Xj7dqsz9zFbZgdujNrx-27" value="да" style="edgeStyle=orthogonalEdgeStyle;rounded=0;orthogonalLoop=1;jettySize=auto;html=1;exitX=1;exitY=0.5;exitDx=0;exitDy=0;entryX=0.5;entryY=0;entryDx=0;entryDy=0;" parent="WIyWlLk6GJQsqaUBKTNV-1" source="7Xj7dqsz9zFbZgdujNrx-24" target="7Xj7dqsz9zFbZgdujNrx-26" edge="1"><mxGeometry relative="1" as="geometry"/></mxCell><mxCell id="7Xj7dqsz9zFbZgdujNrx-30" value="нет" style="edgeStyle=orthogonalEdgeStyle;rounded=0;orthogonalLoop=1;jettySize=auto;html=1;exitX=0.5;exitY=1;exitDx=0;exitDy=0;entryX=0.5;entryY=0;entryDx=0;entryDy=0;" parent="WIyWlLk6GJQsqaUBKTNV-1" source="7Xj7dqsz9zFbZgdujNrx-24" target="7Xj7dqsz9zFbZgdujNrx-29" edge="1"><mxGeometry relative="1" as="geometry"/></mxCell><mxCell id="7Xj7dqsz9zFbZgdujNrx-24" value="в приведённом к строковому типу числе есть буква &quot;е&quot;" style="shape=hexagon;perimeter=hexagonPerimeter2;whiteSpace=wrap;html=1;fixedSize=1;" parent="WIyWlLk6GJQsqaUBKTNV-1" vertex="1"><mxGeometry x="515" y="1000" width="150" height="80" as="geometry"/></mxCell><mxCell id="7Xj7dqsz9zFbZgdujNrx-33" style="edgeStyle=orthogonalEdgeStyle;rounded=0;orthogonalLoop=1;jettySize=auto;html=1;exitX=0.5;exitY=1;exitDx=0;exitDy=0;entryX=0.5;entryY=0;entryDx=0;entryDy=0;" parent="WIyWlLk6GJQsqaUBKTNV-1" source="7Xj7dqsz9zFbZgdujNrx-26" target="7Xj7dqsz9zFbZgdujNrx-16" edge="1"><mxGeometry relative="1" as="geometry"/></mxCell><mxCell id="7Xj7dqsz9zFbZgdujNrx-26" value="форматировать экспоненту к виду {:.3e}" style="rounded=0;whiteSpace=wrap;html=1;shadow=0;fillColor=none;" parent="WIyWlLk6GJQsqaUBKTNV-1" vertex="1"><mxGeometry x="700" y="1065" width="120" height="60" as="geometry"/></mxCell><mxCell id="7Xj7dqsz9zFbZgdujNrx-31" style="edgeStyle=orthogonalEdgeStyle;rounded=0;orthogonalLoop=1;jettySize=auto;html=1;exitX=1;exitY=0.5;exitDx=0;exitDy=0;entryX=0;entryY=0.5;entryDx=0;entryDy=0;" parent="WIyWlLk6GJQsqaUBKTNV-1" source="7Xj7dqsz9zFbZgdujNrx-29" target="7Xj7dqsz9zFbZgdujNrx-16" edge="1"><mxGeometry relative="1" as="geometry"/></mxCell><mxCell id="7Xj7dqsz9zFbZgdujNrx-29" value="округлить число до 3-х знаков после запятой" style="rounded=0;whiteSpace=wrap;html=1;shadow=0;fillColor=none;" parent="WIyWlLk6GJQsqaUBKTNV-1" vertex="1"><mxGeometry x="530" y="1150" width="120" height="60" as="geometry"/></mxCell><mxCell id="7Xj7dqsz9zFbZgdujNrx-32" value="" style="strokeWidth=2;html=1;shape=mxgraph.flowchart.loop_limit;whiteSpace=wrap;shadow=0;fillColor=none;rotation=-180;" parent="WIyWlLk6GJQsqaUBKTNV-1" vertex="1"><mxGeometry x="710" y="1240" width="100" height="60" as="geometry"/></mxCell><mxCell id="5" value="да" style="edgeStyle=orthogonalEdgeStyle;rounded=0;orthogonalLoop=1;jettySize=auto;html=1;exitX=1;exitY=0.5;exitDx=0;exitDy=0;entryX=0;entryY=0.5;entryDx=0;entryDy=0;" edge="1" parent="WIyWlLk6GJQsqaUBKTNV-1" source="0" target="1"><mxGeometry relative="1" as="geometry"/></mxCell><mxCell id="14" value="нет" style="edgeStyle=orthogonalEdgeStyle;rounded=0;orthogonalLoop=1;jettySize=auto;html=1;exitX=0.5;exitY=1;exitDx=0;exitDy=0;entryX=0.5;entryY=0;entryDx=0;entryDy=0;" edge="1" parent="WIyWlLk6GJQsqaUBKTNV-1" source="0" target="9"><mxGeometry relative="1" as="geometry"/></mxCell><mxCell id="0" value="x &amp;lt; -7" style="shape=hexagon;perimeter=hexagonPerimeter2;whiteSpace=wrap;html=1;fixedSize=1;" vertex="1" parent="WIyWlLk6GJQsqaUBKTNV-1"><mxGeometry x="866.25" y="280" width="150" height="80" as="geometry"/></mxCell><mxCell id="19" style="edgeStyle=orthogonalEdgeStyle;rounded=0;orthogonalLoop=1;jettySize=auto;html=1;exitX=1;exitY=0.5;exitDx=0;exitDy=0;entryX=1;entryY=0.75;entryDx=0;entryDy=0;" edge="1" parent="WIyWlLk6GJQsqaUBKTNV-1" source="1" target="16"><mxGeometry relative="1" as="geometry"><Array as="points"><mxPoint x="1440" y="320"/><mxPoint x="1440" y="670"/></Array></mxGeometry></mxCell><mxCell id="1" value="&lt;p class=&quot;MsoNormal&quot;&gt;a = (76*(x**6) + 50*(x**2) + 21)**8 - 38*(x**8)&lt;/p&gt;&lt;p class=&quot;MsoNormal&quot;&gt;&amp;nbsp;b = (15*(x**3) - (x**3))**7 + (16*(x**2) + 12)**4&lt;/p&gt;" style="rounded=0;whiteSpace=wrap;html=1;shadow=0;fillColor=none;" vertex="1" parent="WIyWlLk6GJQsqaUBKTNV-1"><mxGeometry x="1080" y="280" width="320" height="80" as="geometry"/></mxCell><mxCell id="4" style="edgeStyle=orthogonalEdgeStyle;rounded=0;orthogonalLoop=1;jettySize=auto;html=1;exitX=0.5;exitY=1;exitDx=0;exitDy=0;entryX=0.5;entryY=0;entryDx=0;entryDy=0;" edge="1" parent="WIyWlLk6GJQsqaUBKTNV-1" source="2" target="0"><mxGeometry relative="1" as="geometry"/></mxCell><mxCell id="2" value="a = 0&lt;br&gt;b = 0" style="rounded=0;whiteSpace=wrap;html=1;shadow=0;fillColor=none;" vertex="1" parent="WIyWlLk6GJQsqaUBKTNV-1"><mxGeometry x="881.25" y="200" width="120" height="40" as="geometry"/></mxCell><mxCell id="8" value="да" style="edgeStyle=orthogonalEdgeStyle;rounded=0;orthogonalLoop=1;jettySize=auto;html=1;exitX=1;exitY=0.5;exitDx=0;exitDy=0;entryX=0;entryY=0.5;entryDx=0;entryDy=0;" edge="1" source="9" target="10" parent="WIyWlLk6GJQsqaUBKTNV-1"><mxGeometry relative="1" as="geometry"/></mxCell><mxCell id="15" value="нет" style="edgeStyle=orthogonalEdgeStyle;rounded=0;orthogonalLoop=1;jettySize=auto;html=1;exitX=0.5;exitY=1;exitDx=0;exitDy=0;entryX=0.5;entryY=0;entryDx=0;entryDy=0;" edge="1" parent="WIyWlLk6GJQsqaUBKTNV-1" source="9" target="12"><mxGeometry relative="1" as="geometry"/></mxCell><mxCell id="9" value="-7 &amp;lt;= x &amp;lt; -1" style="shape=hexagon;perimeter=hexagonPerimeter2;whiteSpace=wrap;html=1;fixedSize=1;" vertex="1" parent="WIyWlLk6GJQsqaUBKTNV-1"><mxGeometry x="866.25" y="400" width="150" height="80" as="geometry"/></mxCell><mxCell id="18" style="edgeStyle=orthogonalEdgeStyle;rounded=0;orthogonalLoop=1;jettySize=auto;html=1;exitX=1;exitY=0.5;exitDx=0;exitDy=0;entryX=1;entryY=0.5;entryDx=0;entryDy=0;" edge="1" parent="WIyWlLk6GJQsqaUBKTNV-1" source="10" target="16"><mxGeometry relative="1" as="geometry"><Array as="points"><mxPoint x="1430" y="440"/><mxPoint x="1430" y="660"/></Array></mxGeometry></mxCell><mxCell id="10" value="&lt;p class=&quot;MsoNormal&quot;&gt;a = ((37*(x**4) + 80*(x**2) + 92)**5)**0.5 - 55*(x**5)&lt;/p&gt;&lt;p class=&quot;MsoNormal&quot;&gt;&lt;span&gt;b = (59*(x**2))**5 + (25*(x**2) - 38)**6&lt;/span&gt;&lt;br&gt;&lt;/p&gt;" style="rounded=0;whiteSpace=wrap;html=1;shadow=0;fillColor=none;" vertex="1" parent="WIyWlLk6GJQsqaUBKTNV-1"><mxGeometry x="1080" y="400" width="320" height="80" as="geometry"/></mxCell><mxCell id="11" value="да" style="edgeStyle=orthogonalEdgeStyle;rounded=0;orthogonalLoop=1;jettySize=auto;html=1;exitX=1;exitY=0.5;exitDx=0;exitDy=0;entryX=0;entryY=0.5;entryDx=0;entryDy=0;" edge="1" source="12" target="13" parent="WIyWlLk6GJQsqaUBKTNV-1"><mxGeometry relative="1" as="geometry"/></mxCell><mxCell id="12" value="x&amp;nbsp; &amp;gt;= -1" style="shape=hexagon;perimeter=hexagonPerimeter2;whiteSpace=wrap;html=1;fixedSize=1;" vertex="1" parent="WIyWlLk6GJQsqaUBKTNV-1"><mxGeometry x="866.25" y="520" width="150" height="80" as="geometry"/></mxCell><mxCell id="17" style="edgeStyle=orthogonalEdgeStyle;rounded=0;orthogonalLoop=1;jettySize=auto;html=1;exitX=1;exitY=0.5;exitDx=0;exitDy=0;entryX=1;entryY=0.25;entryDx=0;entryDy=0;" edge="1" parent="WIyWlLk6GJQsqaUBKTNV-1" source="13" target="16"><mxGeometry relative="1" as="geometry"/></mxCell><mxCell id="13" value="&lt;p class=&quot;MsoNormal&quot;&gt;a = (5*(x**5) + 78*(x**2) + 75)**6 - 11*(x**5)&lt;/p&gt;&lt;p class=&quot;MsoNormal&quot;&gt;&lt;span style=&quot;font-family: &amp;#34;calibri&amp;#34; , sans-serif ; font-size: 11pt&quot;&gt;b =&amp;nbsp;&lt;/span&gt;&lt;span style=&quot;font-family: &amp;#34;calibri&amp;#34; , sans-serif ; font-size: 11pt&quot;&gt;(7*(x**6) - (x**3))**5 + ((38*x - 79)**3)**0.5&lt;/span&gt;&lt;/p&gt;" style="rounded=0;whiteSpace=wrap;html=1;shadow=0;fillColor=none;" vertex="1" parent="WIyWlLk6GJQsqaUBKTNV-1"><mxGeometry x="1080" y="520" width="320" height="80" as="geometry"/></mxCell><mxCell id="16" value="return a / b" style="rounded=0;whiteSpace=wrap;html=1;shadow=0;fillColor=none;" vertex="1" parent="WIyWlLk6GJQsqaUBKTNV-1"><mxGeometry x="881.25" y="640" width="120" height="40" as="geometry"/></mxCell></root></mxGraphModel></diagram></mxfile>